Coordinates
version=1
nRows=38
nColumns=12
inDegrees=yes

Units are S.I. units (second, meters, Newtons, ...)
Angles are in degrees

endheader
time	SC_y	SC_z	SC_x	AC_y	AC_z	AC_x	GH_y	GH_z	GH_yy	EL_x	PS_y
       0.0               -39.5          4.881          16.83          55.72         -6.598          3.232           74.6         -9.736         -127.4          85.41          129.3
   0.02383               -39.5          4.882          16.83          55.72         -6.598          3.233          74.59         -9.727         -127.4          85.42          129.3
   0.04766               -39.5          4.884          16.84          55.71         -6.597          3.234          74.57         -9.717         -127.4          85.42          129.3
   0.07149               -39.5          4.886          16.84          55.71         -6.596          3.235          74.55         -9.707         -127.4          85.43          129.3
   0.09532               -39.5          4.887          16.84          55.71         -6.596          3.236          74.53         -9.696         -127.4          85.44          129.3
    0.1192               -39.5          4.889          16.84          55.71         -6.595          3.237           74.5         -9.684         -127.4          85.44          129.3
     0.143               -39.5          4.891          16.84          55.71         -6.594          3.238          74.48         -9.671         -127.3          85.45          129.3
    0.1668               -39.5          4.893          16.84           55.7         -6.593          3.239          74.45         -9.658         -127.3          85.46          129.3
    0.1906               -39.5          4.896          16.85           55.7         -6.592           3.24          74.43         -9.643         -127.3          85.47          129.3
    0.2145               -39.5          4.898          16.85           55.7         -6.591          3.242           74.4         -9.628         -127.3          85.48          129.3
    0.2383               -39.5          4.901          16.85          55.69         -6.589          3.243          74.36         -9.611         -127.2          85.49          129.3
    0.2621               -39.5          4.904          16.85          55.69         -6.588          3.245          74.33         -9.593         -127.2           85.5          129.3
     0.286               -39.5          4.907          16.85          55.69         -6.587          3.246          74.29         -9.574         -127.2          85.51          129.3
    0.3098               -39.5           4.91          16.86          55.68         -6.585          3.248          74.25         -9.553         -127.1          85.52          129.3
    0.3336               -39.5          4.914          16.86          55.68         -6.584           3.25          74.21         -9.531         -127.1          85.54          129.3
    0.3575              -39.51          4.918          16.86          55.67         -6.582          3.252          74.16         -9.506         -127.1          85.55          129.3
    0.3813              -39.51          4.922          16.87          55.67          -6.58          3.254          74.11          -9.48         -127.0          85.57          129.3
    0.4051              -39.51          4.926          16.87          55.66         -6.578          3.257          74.06         -9.451         -127.0          85.59          129.3
    0.4289              -39.51          4.931          16.88          55.66         -6.576          3.259           74.0         -9.419         -126.9          85.61          129.3
    0.4528              -39.51          4.937          16.88          55.65         -6.573          3.262          73.93         -9.384         -126.8          85.63          129.3
    0.4766              -39.51          4.943          16.89          55.64         -6.571          3.266          73.86         -9.346         -126.8          85.65          129.3
    0.5004              -39.51           4.95          16.89          55.63         -6.568          3.269          73.78         -9.304         -126.7          85.67          129.3
    0.5243              -39.51          4.957           16.9          55.63         -6.564          3.273          73.69         -9.258         -126.6           85.7          129.3
    0.5481              -39.51          4.965           16.9          55.62         -6.561          3.277          73.59         -9.207         -126.5          85.73          129.3
    0.5719              -39.52          4.974          16.91           55.6         -6.557          3.282          73.48          -9.15         -126.4          85.77          129.3
    0.5958              -39.52          4.984          16.92          55.59         -6.552          3.288          73.36         -9.086         -126.3          85.81          129.2
    0.6196              -39.52          4.995          16.93          55.58         -6.547          3.294          73.22         -9.015         -126.2          85.85          129.2
    0.6434              -39.52          5.008          16.94          55.56         -6.541          3.301          73.07         -8.935         -126.1           85.9          129.2
    0.6673              -39.52          5.022          16.95          55.55         -6.535          3.308          72.89         -8.844         -125.9          85.95          129.2
    0.6911              -39.53          5.039          16.97          55.53         -6.528          3.317           72.7         -8.742         -125.7          86.02          129.2
    0.7149              -39.53          5.057          16.98           55.5         -6.519          3.327          72.47         -8.624         -125.5          86.09          129.2
    0.7387              -39.53          5.079           17.0          55.48          -6.51          3.338          72.22          -8.49         -125.3          86.17          129.2
    0.7626              -39.54          5.103          17.02          55.45         -6.498          3.352          71.92         -8.334         -125.0          86.27          129.2
    0.7864              -39.54          5.132          17.05          55.41         -6.486          3.367          71.57         -8.154         -124.7          86.38          129.2
    0.8102              -39.55          5.166          17.08          55.37         -6.471          3.385          71.17         -7.942         -124.4           86.5          129.1
    0.8341              -39.56          5.205          17.11          55.32         -6.453          3.406          70.69         -7.693         -123.9          86.66          129.1
    0.8579              -39.57          5.252          17.15          55.27         -6.432          3.431          70.12         -7.397         -123.4          86.84          129.1
    0.8817              -39.58          5.308           17.2           55.2         -6.406          3.462          69.44         -7.042         -122.8          87.05          129.1
